<svg xmlns="http://www.w3.org/2000/svg" width="171" height="171" viewBox="0 0 171 171">
  <style>
    .grid-line {
      stroke: #999;
      stroke-width: 1;
      shape-rendering: crispEdges;
    }
    @media (prefers-color-scheme: dark) {
      .grid-line {
        stroke: #111;
      }
    }
  </style>
  <rect width="171" height="171" fill="none"/>
  <rect x="106" y="6" width="4" height="4" fill="#e3a730"/>
  <rect x="111" y="6" width="4" height="4" fill="#e3a730"/>
  <rect x="116" y="6" width="4" height="4" fill="#e3a730"/>
  <rect x="101" y="11" width="4" height="4" fill="#e3a730"/>
  <rect x="106" y="11" width="4" height="4" fill="#e3a730"/>
  <rect x="111" y="11" width="4" height="4" fill="#467924"/>
  <rect x="116" y="11" width="4" height="4" fill="#e3a730"/>
  <rect x="121" y="11" width="4" height="4" fill="#e3a730"/>
  <rect x="76" y="16" width="4" height="4" fill="#ffffff"/>
  <rect x="81" y="16" width="4" height="4" fill="#ffffff"/>
  <rect x="86" y="16" width="4" height="4" fill="#ffffff"/>
  <rect x="91" y="16" width="4" height="4" fill="#ffffff"/>
  <rect x="96" y="16" width="4" height="4" fill="#ffffff"/>
  <rect x="101" y="16" width="4" height="4" fill="#e3a730"/>
  <rect x="106" y="16" width="4" height="4" fill="#e3a730"/>
  <rect x="111" y="16" width="4" height="4" fill="#467924"/>
  <rect x="116" y="16" width="4" height="4" fill="#467924"/>
  <rect x="121" y="16" width="4" height="4" fill="#e3a730"/>
  <rect x="66" y="21" width="4" height="4" fill="#ffffff"/>
  <rect x="71" y="21" width="4" height="4" fill="#ffffff"/>
  <rect x="76" y="21" width="4" height="4" fill="#ffffff"/>
  <rect x="81" y="21" width="4" height="4" fill="#ffffff"/>
  <rect x="86" y="21" width="4" height="4" fill="#ffffff"/>
  <rect x="91" y="21" width="4" height="4" fill="#ffffff"/>
  <rect x="96" y="21" width="4" height="4" fill="#ffffff"/>
  <rect x="101" y="21" width="4" height="4" fill="#e3a730"/>
  <rect x="106" y="21" width="4" height="4" fill="#e3a730"/>
  <rect x="111" y="21" width="4" height="4" fill="#e3a730"/>
  <rect x="116" y="21" width="4" height="4" fill="#e3a730"/>
  <rect x="121" y="21" width="4" height="4" fill="#e3a730"/>
  <rect x="61" y="26" width="4" height="4" fill="#ffffff"/>
  <rect x="66" y="26" width="4" height="4" fill="#ffffff"/>
  <rect x="71" y="26" width="4" height="4" fill="#ffffff"/>
  <rect x="76" y="26" width="4" height="4" fill="#ffffff"/>
  <rect x="81" y="26" width="4" height="4" fill="#ffffff"/>
  <rect x="86" y="26" width="4" height="4" fill="#ffffff"/>
  <rect x="91" y="26" width="4" height="4" fill="#ffffff"/>
  <rect x="96" y="26" width="4" height="4" fill="#ffffff"/>
  <rect x="101" y="26" width="4" height="4" fill="#467924"/>
  <rect x="106" y="26" width="4" height="4" fill="#467924"/>
  <rect x="111" y="26" width="4" height="4" fill="#467924"/>
  <rect x="116" y="26" width="4" height="4" fill="#467924"/>
  <rect x="121" y="26" width="4" height="4" fill="#467924"/>
  <rect x="61" y="31" width="4" height="4" fill="#ffffff"/>
  <rect x="66" y="31" width="4" height="4" fill="#ffffff"/>
  <rect x="71" y="31" width="4" height="4" fill="#ffffff"/>
  <rect x="76" y="31" width="4" height="4" fill="#ffffff"/>
  <rect x="81" y="31" width="4" height="4" fill="#ffffff"/>
  <rect x="86" y="31" width="4" height="4" fill="#ffffff"/>
  <rect x="91" y="31" width="4" height="4" fill="#ffffff"/>
  <rect x="96" y="31" width="4" height="4" fill="#ffffff"/>
  <rect x="101" y="31" width="4" height="4" fill="#ffffff"/>
  <rect x="106" y="31" width="4" height="4" fill="#ffffff"/>
  <rect x="111" y="31" width="4" height="4" fill="#ffffff"/>
  <rect x="116" y="31" width="4" height="4" fill="#467924"/>
  <rect x="121" y="31" width="4" height="4" fill="#467924"/>
  <rect x="61" y="36" width="4" height="4" fill="#467924"/>
  <rect x="66" y="36" width="4" height="4" fill="#467924"/>
  <rect x="71" y="36" width="4" height="4" fill="#467924"/>
  <rect x="76" y="36" width="4" height="4" fill="#e3a730"/>
  <rect x="81" y="36" width="4" height="4" fill="#e3a730"/>
  <rect x="86" y="36" width="4" height="4" fill="#467924"/>
  <rect x="91" y="36" width="4" height="4" fill="#e3a730"/>
  <rect x="96" y="36" width="4" height="4" fill="#e3a730"/>
  <rect x="101" y="36" width="4" height="4" fill="#e3a730"/>
  <rect x="106" y="36" width="4" height="4" fill="#467924"/>
  <rect x="111" y="36" width="4" height="4" fill="#467924"/>
  <rect x="116" y="36" width="4" height="4" fill="#467924"/>
  <rect x="121" y="36" width="4" height="4" fill="#467924"/>
  <rect x="56" y="41" width="4" height="4" fill="#467924"/>
  <rect x="61" y="41" width="4" height="4" fill="#e3a730"/>
  <rect x="66" y="41" width="4" height="4" fill="#e3a730"/>
  <rect x="71" y="41" width="4" height="4" fill="#467924"/>
  <rect x="76" y="41" width="4" height="4" fill="#e3a730"/>
  <rect x="81" y="41" width="4" height="4" fill="#e3a730"/>
  <rect x="86" y="41" width="4" height="4" fill="#467924"/>
  <rect x="91" y="41" width="4" height="4" fill="#e3a730"/>
  <rect x="96" y="41" width="4" height="4" fill="#e3a730"/>
  <rect x="101" y="41" width="4" height="4" fill="#e3a730"/>
  <rect x="106" y="41" width="4" height="4" fill="#e3a730"/>
  <rect x="111" y="41" width="4" height="4" fill="#e3a730"/>
  <rect x="116" y="41" width="4" height="4" fill="#467924"/>
  <rect x="121" y="41" width="4" height="4" fill="#467924"/>
  <rect x="56" y="46" width="4" height="4" fill="#467924"/>
  <rect x="61" y="46" width="4" height="4" fill="#e3a730"/>
  <rect x="66" y="46" width="4" height="4" fill="#e3a730"/>
  <rect x="71" y="46" width="4" height="4" fill="#467924"/>
  <rect x="76" y="46" width="4" height="4" fill="#467924"/>
  <rect x="81" y="46" width="4" height="4" fill="#e3a730"/>
  <rect x="86" y="46" width="4" height="4" fill="#e3a730"/>
  <rect x="91" y="46" width="4" height="4" fill="#e3a730"/>
  <rect x="96" y="46" width="4" height="4" fill="#e3a730"/>
  <rect x="101" y="46" width="4" height="4" fill="#e3a730"/>
  <rect x="106" y="46" width="4" height="4" fill="#e3a730"/>
  <rect x="111" y="46" width="4" height="4" fill="#e3a730"/>
  <rect x="116" y="46" width="4" height="4" fill="#e3a730"/>
  <rect x="121" y="46" width="4" height="4" fill="#467924"/>
  <rect x="56" y="51" width="4" height="4" fill="#467924"/>
  <rect x="61" y="51" width="4" height="4" fill="#e3a730"/>
  <rect x="66" y="51" width="4" height="4" fill="#e3a730"/>
  <rect x="71" y="51" width="4" height="4" fill="#467924"/>
  <rect x="76" y="51" width="4" height="4" fill="#467924"/>
  <rect x="81" y="51" width="4" height="4" fill="#e3a730"/>
  <rect x="86" y="51" width="4" height="4" fill="#e3a730"/>
  <rect x="91" y="51" width="4" height="4" fill="#e3a730"/>
  <rect x="96" y="51" width="4" height="4" fill="#467924"/>
  <rect x="101" y="51" width="4" height="4" fill="#e3a730"/>
  <rect x="106" y="51" width="4" height="4" fill="#e3a730"/>
  <rect x="111" y="51" width="4" height="4" fill="#e3a730"/>
  <rect x="116" y="51" width="4" height="4" fill="#e3a730"/>
  <rect x="121" y="51" width="4" height="4" fill="#467924"/>
  <rect x="51" y="56" width="4" height="4" fill="#467924"/>
  <rect x="56" y="56" width="4" height="4" fill="#467924"/>
  <rect x="61" y="56" width="4" height="4" fill="#e3a730"/>
  <rect x="66" y="56" width="4" height="4" fill="#e3a730"/>
  <rect x="71" y="56" width="4" height="4" fill="#e3a730"/>
  <rect x="76" y="56" width="4" height="4" fill="#e3a730"/>
  <rect x="81" y="56" width="4" height="4" fill="#e3a730"/>
  <rect x="86" y="56" width="4" height="4" fill="#467924"/>
  <rect x="91" y="56" width="4" height="4" fill="#467924"/>
  <rect x="96" y="56" width="4" height="4" fill="#467924"/>
  <rect x="101" y="56" width="4" height="4" fill="#467924"/>
  <rect x="106" y="56" width="4" height="4" fill="#467924"/>
  <rect x="111" y="56" width="4" height="4" fill="#467924"/>
  <rect x="116" y="56" width="4" height="4" fill="#467924"/>
  <rect x="51" y="61" width="4" height="4" fill="#467924"/>
  <rect x="56" y="61" width="4" height="4" fill="#467924"/>
  <rect x="61" y="61" width="4" height="4" fill="#467924"/>
  <rect x="66" y="61" width="4" height="4" fill="#467924"/>
  <rect x="71" y="61" width="4" height="4" fill="#e3a730"/>
  <rect x="76" y="61" width="4" height="4" fill="#e3a730"/>
  <rect x="81" y="61" width="4" height="4" fill="#e3a730"/>
  <rect x="86" y="61" width="4" height="4" fill="#e3a730"/>
  <rect x="91" y="61" width="4" height="4" fill="#467924"/>
  <rect x="96" y="61" width="4" height="4" fill="#467924"/>
  <rect x="101" y="61" width="4" height="4" fill="#467924"/>
  <rect x="106" y="61" width="4" height="4" fill="#467924"/>
  <rect x="111" y="61" width="4" height="4" fill="#e3a730"/>
  <rect x="116" y="61" width="4" height="4" fill="#467924"/>
  <rect x="61" y="66" width="4" height="4" fill="#467924"/>
  <rect x="66" y="66" width="4" height="4" fill="#467924"/>
  <rect x="71" y="66" width="4" height="4" fill="#e3a730"/>
  <rect x="76" y="66" width="4" height="4" fill="#e3a730"/>
  <rect x="81" y="66" width="4" height="4" fill="#e3a730"/>
  <rect x="86" y="66" width="4" height="4" fill="#e3a730"/>
  <rect x="91" y="66" width="4" height="4" fill="#e3a730"/>
  <rect x="96" y="66" width="4" height="4" fill="#e3a730"/>
  <rect x="101" y="66" width="4" height="4" fill="#e3a730"/>
  <rect x="106" y="66" width="4" height="4" fill="#e3a730"/>
  <rect x="111" y="66" width="4" height="4" fill="#467924"/>
  <rect x="116" y="66" width="4" height="4" fill="#467924"/>
  <rect x="66" y="71" width="4" height="4" fill="#ffffff"/>
  <rect x="71" y="71" width="4" height="4" fill="#ffffff"/>
  <rect x="76" y="71" width="4" height="4" fill="#ffffff"/>
  <rect x="81" y="71" width="4" height="4" fill="#ffffff"/>
  <rect x="86" y="71" width="4" height="4" fill="#467924"/>
  <rect x="91" y="71" width="4" height="4" fill="#467924"/>
  <rect x="96" y="71" width="4" height="4" fill="#ffffff"/>
  <rect x="101" y="71" width="4" height="4" fill="#467924"/>
  <rect x="106" y="71" width="4" height="4" fill="#467924"/>
  <rect x="111" y="71" width="4" height="4" fill="#467924"/>
  <rect x="116" y="71" width="4" height="4" fill="#467924"/>
  <rect x="51" y="76" width="4" height="4" fill="#467924"/>
  <rect x="56" y="76" width="4" height="4" fill="#467924"/>
  <rect x="61" y="76" width="4" height="4" fill="#467924"/>
  <rect x="66" y="76" width="4" height="4" fill="#467924"/>
  <rect x="71" y="76" width="4" height="4" fill="#467924"/>
  <rect x="76" y="76" width="4" height="4" fill="#467924"/>
  <rect x="81" y="76" width="4" height="4" fill="#ffffff"/>
  <rect x="86" y="76" width="4" height="4" fill="#ffffff"/>
  <rect x="91" y="76" width="4" height="4" fill="#467924"/>
  <rect x="96" y="76" width="4" height="4" fill="#ffffff"/>
  <rect x="101" y="76" width="4" height="4" fill="#467924"/>
  <rect x="106" y="76" width="4" height="4" fill="#467924"/>
  <rect x="111" y="76" width="4" height="4" fill="#467924"/>
  <rect x="46" y="81" width="4" height="4" fill="#467924"/>
  <rect x="51" y="81" width="4" height="4" fill="#467924"/>
  <rect x="56" y="81" width="4" height="4" fill="#467924"/>
  <rect x="61" y="81" width="4" height="4" fill="#467924"/>
  <rect x="66" y="81" width="4" height="4" fill="#467924"/>
  <rect x="71" y="81" width="4" height="4" fill="#467924"/>
  <rect x="76" y="81" width="4" height="4" fill="#467924"/>
  <rect x="81" y="81" width="4" height="4" fill="#467924"/>
  <rect x="86" y="81" width="4" height="4" fill="#ffffff"/>
  <rect x="91" y="81" width="4" height="4" fill="#467924"/>
  <rect x="96" y="81" width="4" height="4" fill="#467924"/>
  <rect x="101" y="81" width="4" height="4" fill="#ffffff"/>
  <rect x="106" y="81" width="4" height="4" fill="#467924"/>
  <rect x="111" y="81" width="4" height="4" fill="#467924"/>
  <rect x="46" y="86" width="4" height="4" fill="#467924"/>
  <rect x="51" y="86" width="4" height="4" fill="#467924"/>
  <rect x="56" y="86" width="4" height="4" fill="#467924"/>
  <rect x="61" y="86" width="4" height="4" fill="#467924"/>
  <rect x="66" y="86" width="4" height="4" fill="#467924"/>
  <rect x="71" y="86" width="4" height="4" fill="#467924"/>
  <rect x="76" y="86" width="4" height="4" fill="#467924"/>
  <rect x="81" y="86" width="4" height="4" fill="#467924"/>
  <rect x="86" y="86" width="4" height="4" fill="#ffffff"/>
  <rect x="91" y="86" width="4" height="4" fill="#ffffff"/>
  <rect x="96" y="86" width="4" height="4" fill="#467924"/>
  <rect x="101" y="86" width="4" height="4" fill="#ffffff"/>
  <rect x="106" y="86" width="4" height="4" fill="#467924"/>
  <rect x="46" y="91" width="4" height="4" fill="#467924"/>
  <rect x="51" y="91" width="4" height="4" fill="#467924"/>
  <rect x="56" y="91" width="4" height="4" fill="#e3a730"/>
  <rect x="61" y="91" width="4" height="4" fill="#e3a730"/>
  <rect x="66" y="91" width="4" height="4" fill="#467924"/>
  <rect x="71" y="91" width="4" height="4" fill="#467924"/>
  <rect x="76" y="91" width="4" height="4" fill="#467924"/>
  <rect x="81" y="91" width="4" height="4" fill="#467924"/>
  <rect x="86" y="91" width="4" height="4" fill="#ffffff"/>
  <rect x="91" y="91" width="4" height="4" fill="#ffffff"/>
  <rect x="96" y="91" width="4" height="4" fill="#467924"/>
  <rect x="101" y="91" width="4" height="4" fill="#467924"/>
  <rect x="106" y="91" width="4" height="4" fill="#ffffff"/>
  <rect x="46" y="96" width="4" height="4" fill="#467924"/>
  <rect x="51" y="96" width="4" height="4" fill="#e3a730"/>
  <rect x="56" y="96" width="4" height="4" fill="#e3a730"/>
  <rect x="61" y="96" width="4" height="4" fill="#e3a730"/>
  <rect x="66" y="96" width="4" height="4" fill="#e3a730"/>
  <rect x="71" y="96" width="4" height="4" fill="#467924"/>
  <rect x="76" y="96" width="4" height="4" fill="#467924"/>
  <rect x="81" y="96" width="4" height="4" fill="#ffffff"/>
  <rect x="86" y="96" width="4" height="4" fill="#ffffff"/>
  <rect x="91" y="96" width="4" height="4" fill="#ffffff"/>
  <rect x="96" y="96" width="4" height="4" fill="#ffffff"/>
  <rect x="101" y="96" width="4" height="4" fill="#467924"/>
  <rect x="106" y="96" width="4" height="4" fill="#e3a730"/>
  <rect x="46" y="101" width="4" height="4" fill="#e3a730"/>
  <rect x="51" y="101" width="4" height="4" fill="#e3a730"/>
  <rect x="56" y="101" width="4" height="4" fill="#e3a730"/>
  <rect x="61" y="101" width="4" height="4" fill="#e3a730"/>
  <rect x="66" y="101" width="4" height="4" fill="#e3a730"/>
  <rect x="71" y="101" width="4" height="4" fill="#467924"/>
  <rect x="76" y="101" width="4" height="4" fill="#ffffff"/>
  <rect x="81" y="101" width="4" height="4" fill="#ffffff"/>
  <rect x="86" y="101" width="4" height="4" fill="#ffffff"/>
  <rect x="91" y="101" width="4" height="4" fill="#e3a730"/>
  <rect x="96" y="101" width="4" height="4" fill="#ffffff"/>
  <rect x="101" y="101" width="4" height="4" fill="#ffffff"/>
  <rect x="106" y="101" width="4" height="4" fill="#ffffff"/>
  <rect x="46" y="106" width="4" height="4" fill="#e3a730"/>
  <rect x="51" y="106" width="4" height="4" fill="#e3a730"/>
  <rect x="56" y="106" width="4" height="4" fill="#e3a730"/>
  <rect x="61" y="106" width="4" height="4" fill="#e3a730"/>
  <rect x="66" y="106" width="4" height="4" fill="#e3a730"/>
  <rect x="71" y="106" width="4" height="4" fill="#ffffff"/>
  <rect x="76" y="106" width="4" height="4" fill="#ffffff"/>
  <rect x="81" y="106" width="4" height="4" fill="#ffffff"/>
  <rect x="86" y="106" width="4" height="4" fill="#ffffff"/>
  <rect x="91" y="106" width="4" height="4" fill="#ffffff"/>
  <rect x="96" y="106" width="4" height="4" fill="#ffffff"/>
  <rect x="101" y="106" width="4" height="4" fill="#ffffff"/>
  <rect x="106" y="106" width="4" height="4" fill="#ffffff"/>
  <rect x="46" y="111" width="4" height="4" fill="#e3a730"/>
  <rect x="56" y="111" width="4" height="4" fill="#e3a730"/>
  <rect x="61" y="111" width="4" height="4" fill="#e3a730"/>
  <rect x="66" y="111" width="4" height="4" fill="#ffffff"/>
  <rect x="71" y="111" width="4" height="4" fill="#ffffff"/>
  <rect x="76" y="111" width="4" height="4" fill="#ffffff"/>
  <rect x="81" y="111" width="4" height="4" fill="#ffffff"/>
  <rect x="86" y="111" width="4" height="4" fill="#ffffff"/>
  <rect x="91" y="111" width="4" height="4" fill="#ffffff"/>
  <rect x="96" y="111" width="4" height="4" fill="#ffffff"/>
  <rect x="101" y="111" width="4" height="4" fill="#ffffff"/>
  <rect x="106" y="111" width="4" height="4" fill="#ffffff"/>
  <rect x="121" y="111" width="4" height="4" fill="#467924"/>
  <rect x="51" y="116" width="4" height="4" fill="#e3a730"/>
  <rect x="56" y="116" width="4" height="4" fill="#e3a730"/>
  <rect x="61" y="116" width="4" height="4" fill="#ffffff"/>
  <rect x="66" y="116" width="4" height="4" fill="#ffffff"/>
  <rect x="71" y="116" width="4" height="4" fill="#ffffff"/>
  <rect x="76" y="116" width="4" height="4" fill="#ffffff"/>
  <rect x="81" y="116" width="4" height="4" fill="#ffffff"/>
  <rect x="86" y="116" width="4" height="4" fill="#ffffff"/>
  <rect x="91" y="116" width="4" height="4" fill="#ffffff"/>
  <rect x="96" y="116" width="4" height="4" fill="#ffffff"/>
  <rect x="101" y="116" width="4" height="4" fill="#ffffff"/>
  <rect x="106" y="116" width="4" height="4" fill="#ffffff"/>
  <rect x="116" y="116" width="4" height="4" fill="#467924"/>
  <rect x="121" y="116" width="4" height="4" fill="#467924"/>
  <rect x="61" y="121" width="4" height="4" fill="#ffffff"/>
  <rect x="66" y="121" width="4" height="4" fill="#ffffff"/>
  <rect x="71" y="121" width="4" height="4" fill="#ffffff"/>
  <rect x="76" y="121" width="4" height="4" fill="#ffffff"/>
  <rect x="81" y="121" width="4" height="4" fill="#ffffff"/>
  <rect x="86" y="121" width="4" height="4" fill="#ffffff"/>
  <rect x="91" y="121" width="4" height="4" fill="#ffffff"/>
  <rect x="96" y="121" width="4" height="4" fill="#ffffff"/>
  <rect x="101" y="121" width="4" height="4" fill="#ffffff"/>
  <rect x="106" y="121" width="4" height="4" fill="#467924"/>
  <rect x="111" y="121" width="4" height="4" fill="#467924"/>
  <rect x="116" y="121" width="4" height="4" fill="#467924"/>
  <rect x="121" y="121" width="4" height="4" fill="#467924"/>
  <rect x="61" y="126" width="4" height="4" fill="#467924"/>
  <rect x="66" y="126" width="4" height="4" fill="#ffffff"/>
  <rect x="71" y="126" width="4" height="4" fill="#ffffff"/>
  <rect x="76" y="126" width="4" height="4" fill="#ffffff"/>
  <rect x="81" y="126" width="4" height="4" fill="#ffffff"/>
  <rect x="86" y="126" width="4" height="4" fill="#ffffff"/>
  <rect x="91" y="126" width="4" height="4" fill="#ffffff"/>
  <rect x="96" y="126" width="4" height="4" fill="#ffffff"/>
  <rect x="101" y="126" width="4" height="4" fill="#ffffff"/>
  <rect x="106" y="126" width="4" height="4" fill="#467924"/>
  <rect x="111" y="126" width="4" height="4" fill="#467924"/>
  <rect x="116" y="126" width="4" height="4" fill="#467924"/>
  <rect x="121" y="126" width="4" height="4" fill="#467924"/>
  <rect x="46" y="131" width="4" height="4" fill="#467924"/>
  <rect x="51" y="131" width="4" height="4" fill="#467924"/>
  <rect x="56" y="131" width="4" height="4" fill="#467924"/>
  <rect x="61" y="131" width="4" height="4" fill="#ffffff"/>
  <rect x="66" y="131" width="4" height="4" fill="#467924"/>
  <rect x="71" y="131" width="4" height="4" fill="#467924"/>
  <rect x="76" y="131" width="4" height="4" fill="#ffffff"/>
  <rect x="81" y="131" width="4" height="4" fill="#ffffff"/>
  <rect x="86" y="131" width="4" height="4" fill="#ffffff"/>
  <rect x="91" y="131" width="4" height="4" fill="#ffffff"/>
  <rect x="96" y="131" width="4" height="4" fill="#ffffff"/>
  <rect x="101" y="131" width="4" height="4" fill="#ffffff"/>
  <rect x="106" y="131" width="4" height="4" fill="#467924"/>
  <rect x="111" y="131" width="4" height="4" fill="#467924"/>
  <rect x="116" y="131" width="4" height="4" fill="#467924"/>
  <rect x="121" y="131" width="4" height="4" fill="#467924"/>
  <rect x="46" y="136" width="4" height="4" fill="#467924"/>
  <rect x="51" y="136" width="4" height="4" fill="#467924"/>
  <rect x="56" y="136" width="4" height="4" fill="#467924"/>
  <rect x="61" y="136" width="4" height="4" fill="#ffffff"/>
  <rect x="66" y="136" width="4" height="4" fill="#ffffff"/>
  <rect x="71" y="136" width="4" height="4" fill="#ffffff"/>
  <rect x="76" y="136" width="4" height="4" fill="#467924"/>
  <rect x="81" y="136" width="4" height="4" fill="#467924"/>
  <rect x="86" y="136" width="4" height="4" fill="#ffffff"/>
  <rect x="91" y="136" width="4" height="4" fill="#ffffff"/>
  <rect x="96" y="136" width="4" height="4" fill="#ffffff"/>
  <rect x="101" y="136" width="4" height="4" fill="#ffffff"/>
  <rect x="106" y="136" width="4" height="4" fill="#467924"/>
  <rect x="111" y="136" width="4" height="4" fill="#467924"/>
  <rect x="116" y="136" width="4" height="4" fill="#467924"/>
  <rect x="121" y="136" width="4" height="4" fill="#467924"/>
  <rect x="46" y="141" width="4" height="4" fill="#467924"/>
  <rect x="51" y="141" width="4" height="4" fill="#467924"/>
  <rect x="56" y="141" width="4" height="4" fill="#467924"/>
  <rect x="61" y="141" width="4" height="4" fill="#ffffff"/>
  <rect x="66" y="141" width="4" height="4" fill="#ffffff"/>
  <rect x="71" y="141" width="4" height="4" fill="#ffffff"/>
  <rect x="76" y="141" width="4" height="4" fill="#ffffff"/>
  <rect x="81" y="141" width="4" height="4" fill="#ffffff"/>
  <rect x="96" y="141" width="4" height="4" fill="#ffffff"/>
  <rect x="101" y="141" width="4" height="4" fill="#ffffff"/>
  <rect x="106" y="141" width="4" height="4" fill="#467924"/>
  <rect x="111" y="141" width="4" height="4" fill="#467924"/>
  <rect x="116" y="141" width="4" height="4" fill="#467924"/>
  <rect x="121" y="141" width="4" height="4" fill="#467924"/>
  <rect x="46" y="146" width="4" height="4" fill="#467924"/>
  <rect x="51" y="146" width="4" height="4" fill="#467924"/>
  <rect x="56" y="146" width="4" height="4" fill="#467924"/>
  <rect x="61" y="146" width="4" height="4" fill="#ffffff"/>
  <rect x="66" y="146" width="4" height="4" fill="#ffffff"/>
  <rect x="71" y="146" width="4" height="4" fill="#ffffff"/>
  <rect x="76" y="146" width="4" height="4" fill="#ffffff"/>
  <rect x="81" y="146" width="4" height="4" fill="#ffffff"/>
  <rect x="46" y="151" width="4" height="4" fill="#467924"/>
  <rect x="51" y="151" width="4" height="4" fill="#467924"/>
  <rect x="56" y="151" width="4" height="4" fill="#467924"/>
  <rect x="61" y="151" width="4" height="4" fill="#ffffff"/>
  <rect x="66" y="151" width="4" height="4" fill="#ffffff"/>
  <rect x="71" y="151" width="4" height="4" fill="#ffffff"/>
  <rect x="76" y="151" width="4" height="4" fill="#ffffff"/>
  <rect x="46" y="156" width="4" height="4" fill="#467924"/>
  <rect x="51" y="156" width="4" height="4" fill="#467924"/>
  <rect x="46" y="161" width="4" height="4" fill="#467924"/>
  <line x1="0.5" y1="0" x2="0.5" y2="171" class="grid-line"/>
  <line x1="5.5" y1="0" x2="5.5" y2="171" class="grid-line"/>
  <line x1="10.5" y1="0" x2="10.5" y2="171" class="grid-line"/>
  <line x1="15.5" y1="0" x2="15.5" y2="171" class="grid-line"/>
  <line x1="20.5" y1="0" x2="20.5" y2="171" class="grid-line"/>
  <line x1="25.5" y1="0" x2="25.5" y2="171" class="grid-line"/>
  <line x1="30.5" y1="0" x2="30.5" y2="171" class="grid-line"/>
  <line x1="35.5" y1="0" x2="35.5" y2="171" class="grid-line"/>
  <line x1="40.5" y1="0" x2="40.5" y2="171" class="grid-line"/>
  <line x1="45.5" y1="0" x2="45.5" y2="171" class="grid-line"/>
  <line x1="50.5" y1="0" x2="50.5" y2="171" class="grid-line"/>
  <line x1="55.5" y1="0" x2="55.5" y2="171" class="grid-line"/>
  <line x1="60.5" y1="0" x2="60.5" y2="171" class="grid-line"/>
  <line x1="65.5" y1="0" x2="65.5" y2="171" class="grid-line"/>
  <line x1="70.5" y1="0" x2="70.5" y2="171" class="grid-line"/>
  <line x1="75.5" y1="0" x2="75.5" y2="171" class="grid-line"/>
  <line x1="80.5" y1="0" x2="80.5" y2="171" class="grid-line"/>
  <line x1="85.5" y1="0" x2="85.5" y2="171" class="grid-line"/>
  <line x1="90.5" y1="0" x2="90.5" y2="171" class="grid-line"/>
  <line x1="95.5" y1="0" x2="95.5" y2="171" class="grid-line"/>
  <line x1="100.5" y1="0" x2="100.5" y2="171" class="grid-line"/>
  <line x1="105.5" y1="0" x2="105.5" y2="171" class="grid-line"/>
  <line x1="110.5" y1="0" x2="110.5" y2="171" class="grid-line"/>
  <line x1="115.5" y1="0" x2="115.5" y2="171" class="grid-line"/>
  <line x1="120.5" y1="0" x2="120.5" y2="171" class="grid-line"/>
  <line x1="125.5" y1="0" x2="125.5" y2="171" class="grid-line"/>
  <line x1="130.5" y1="0" x2="130.5" y2="171" class="grid-line"/>
  <line x1="135.5" y1="0" x2="135.5" y2="171" class="grid-line"/>
  <line x1="140.5" y1="0" x2="140.5" y2="171" class="grid-line"/>
  <line x1="145.5" y1="0" x2="145.5" y2="171" class="grid-line"/>
  <line x1="150.5" y1="0" x2="150.5" y2="171" class="grid-line"/>
  <line x1="155.5" y1="0" x2="155.5" y2="171" class="grid-line"/>
  <line x1="160.5" y1="0" x2="160.5" y2="171" class="grid-line"/>
  <line x1="165.5" y1="0" x2="165.5" y2="171" class="grid-line"/>
  <line x1="170.5" y1="0" x2="170.5" y2="171" class="grid-line"/>
  <line x1="0" y1="0.5" x2="171" y2="0.5" class="grid-line"/>
  <line x1="0" y1="5.5" x2="171" y2="5.5" class="grid-line"/>
  <line x1="0" y1="10.5" x2="171" y2="10.5" class="grid-line"/>
  <line x1="0" y1="15.5" x2="171" y2="15.5" class="grid-line"/>
  <line x1="0" y1="20.5" x2="171" y2="20.5" class="grid-line"/>
  <line x1="0" y1="25.5" x2="171" y2="25.5" class="grid-line"/>
  <line x1="0" y1="30.5" x2="171" y2="30.5" class="grid-line"/>
  <line x1="0" y1="35.5" x2="171" y2="35.5" class="grid-line"/>
  <line x1="0" y1="40.5" x2="171" y2="40.5" class="grid-line"/>
  <line x1="0" y1="45.5" x2="171" y2="45.5" class="grid-line"/>
  <line x1="0" y1="50.5" x2="171" y2="50.5" class="grid-line"/>
  <line x1="0" y1="55.5" x2="171" y2="55.5" class="grid-line"/>
  <line x1="0" y1="60.5" x2="171" y2="60.5" class="grid-line"/>
  <line x1="0" y1="65.5" x2="171" y2="65.5" class="grid-line"/>
  <line x1="0" y1="70.5" x2="171" y2="70.5" class="grid-line"/>
  <line x1="0" y1="75.5" x2="171" y2="75.5" class="grid-line"/>
  <line x1="0" y1="80.5" x2="171" y2="80.5" class="grid-line"/>
  <line x1="0" y1="85.5" x2="171" y2="85.5" class="grid-line"/>
  <line x1="0" y1="90.5" x2="171" y2="90.5" class="grid-line"/>
  <line x1="0" y1="95.5" x2="171" y2="95.5" class="grid-line"/>
  <line x1="0" y1="100.5" x2="171" y2="100.5" class="grid-line"/>
  <line x1="0" y1="105.5" x2="171" y2="105.5" class="grid-line"/>
  <line x1="0" y1="110.5" x2="171" y2="110.5" class="grid-line"/>
  <line x1="0" y1="115.5" x2="171" y2="115.5" class="grid-line"/>
  <line x1="0" y1="120.5" x2="171" y2="120.5" class="grid-line"/>
  <line x1="0" y1="125.5" x2="171" y2="125.5" class="grid-line"/>
  <line x1="0" y1="130.5" x2="171" y2="130.5" class="grid-line"/>
  <line x1="0" y1="135.5" x2="171" y2="135.5" class="grid-line"/>
  <line x1="0" y1="140.5" x2="171" y2="140.5" class="grid-line"/>
  <line x1="0" y1="145.5" x2="171" y2="145.5" class="grid-line"/>
  <line x1="0" y1="150.5" x2="171" y2="150.5" class="grid-line"/>
  <line x1="0" y1="155.5" x2="171" y2="155.5" class="grid-line"/>
  <line x1="0" y1="160.5" x2="171" y2="160.5" class="grid-line"/>
  <line x1="0" y1="165.5" x2="171" y2="165.5" class="grid-line"/>
  <line x1="0" y1="170.5" x2="171" y2="170.5" class="grid-line"/>
</svg>