<svg xmlns="http://www.w3.org/2000/svg" width="91" height="91" viewBox="0 0 91 91">
  <style>
    .grid-line {
      stroke: #999;
      stroke-width: 1;
      shape-rendering: crispEdges;
    }
    @media (prefers-color-scheme: dark) {
      .grid-line {
        stroke: #111;
      }
    }
  </style>
  <rect width="91" height="91" fill="none"/>
  <rect x="31" y="6" width="4" height="4" fill="#c63117"/>
  <rect x="36" y="6" width="4" height="4" fill="#c63117"/>
  <rect x="41" y="6" width="4" height="4" fill="#c63117"/>
  <rect x="46" y="6" width="4" height="4" fill="#c63117"/>
  <rect x="51" y="6" width="4" height="4" fill="#c63117"/>
  <rect x="26" y="11" width="4" height="4" fill="#c63117"/>
  <rect x="31" y="11" width="4" height="4" fill="#c63117"/>
  <rect x="36" y="11" width="4" height="4" fill="#c63117"/>
  <rect x="41" y="11" width="4" height="4" fill="#c63117"/>
  <rect x="46" y="11" width="4" height="4" fill="#c63117"/>
  <rect x="51" y="11" width="4" height="4" fill="#c63117"/>
  <rect x="56" y="11" width="4" height="4" fill="#c63117"/>
  <rect x="61" y="11" width="4" height="4" fill="#c63117"/>
  <rect x="66" y="11" width="4" height="4" fill="#c63117"/>
  <rect x="26" y="16" width="4" height="4" fill="#725c0c"/>
  <rect x="31" y="16" width="4" height="4" fill="#725c0c"/>
  <rect x="36" y="16" width="4" height="4" fill="#725c0c"/>
  <rect x="41" y="16" width="4" height="4" fill="#e3a730"/>
  <rect x="46" y="16" width="4" height="4" fill="#e3a730"/>
  <rect x="51" y="16" width="4" height="4" fill="#725c0c"/>
  <rect x="56" y="16" width="4" height="4" fill="#e3a730"/>
  <rect x="21" y="21" width="4" height="4" fill="#725c0c"/>
  <rect x="26" y="21" width="4" height="4" fill="#e3a730"/>
  <rect x="31" y="21" width="4" height="4" fill="#725c0c"/>
  <rect x="36" y="21" width="4" height="4" fill="#e3a730"/>
  <rect x="41" y="21" width="4" height="4" fill="#e3a730"/>
  <rect x="46" y="21" width="4" height="4" fill="#e3a730"/>
  <rect x="51" y="21" width="4" height="4" fill="#725c0c"/>
  <rect x="56" y="21" width="4" height="4" fill="#e3a730"/>
  <rect x="61" y="21" width="4" height="4" fill="#e3a730"/>
  <rect x="66" y="21" width="4" height="4" fill="#e3a730"/>
  <rect x="21" y="26" width="4" height="4" fill="#725c0c"/>
  <rect x="26" y="26" width="4" height="4" fill="#e3a730"/>
  <rect x="31" y="26" width="4" height="4" fill="#725c0c"/>
  <rect x="36" y="26" width="4" height="4" fill="#725c0c"/>
  <rect x="41" y="26" width="4" height="4" fill="#e3a730"/>
  <rect x="46" y="26" width="4" height="4" fill="#e3a730"/>
  <rect x="51" y="26" width="4" height="4" fill="#e3a730"/>
  <rect x="56" y="26" width="4" height="4" fill="#725c0c"/>
  <rect x="61" y="26" width="4" height="4" fill="#e3a730"/>
  <rect x="66" y="26" width="4" height="4" fill="#e3a730"/>
  <rect x="71" y="26" width="4" height="4" fill="#e3a730"/>
  <rect x="21" y="31" width="4" height="4" fill="#725c0c"/>
  <rect x="26" y="31" width="4" height="4" fill="#725c0c"/>
  <rect x="31" y="31" width="4" height="4" fill="#e3a730"/>
  <rect x="36" y="31" width="4" height="4" fill="#e3a730"/>
  <rect x="41" y="31" width="4" height="4" fill="#e3a730"/>
  <rect x="46" y="31" width="4" height="4" fill="#e3a730"/>
  <rect x="51" y="31" width="4" height="4" fill="#725c0c"/>
  <rect x="56" y="31" width="4" height="4" fill="#725c0c"/>
  <rect x="61" y="31" width="4" height="4" fill="#725c0c"/>
  <rect x="66" y="31" width="4" height="4" fill="#725c0c"/>
  <rect x="31" y="36" width="4" height="4" fill="#e3a730"/>
  <rect x="36" y="36" width="4" height="4" fill="#e3a730"/>
  <rect x="41" y="36" width="4" height="4" fill="#e3a730"/>
  <rect x="46" y="36" width="4" height="4" fill="#e3a730"/>
  <rect x="51" y="36" width="4" height="4" fill="#e3a730"/>
  <rect x="56" y="36" width="4" height="4" fill="#e3a730"/>
  <rect x="61" y="36" width="4" height="4" fill="#e3a730"/>
  <rect x="26" y="41" width="4" height="4" fill="#725c0c"/>
  <rect x="31" y="41" width="4" height="4" fill="#725c0c"/>
  <rect x="36" y="41" width="4" height="4" fill="#c63117"/>
  <rect x="41" y="41" width="4" height="4" fill="#725c0c"/>
  <rect x="46" y="41" width="4" height="4" fill="#725c0c"/>
  <rect x="51" y="41" width="4" height="4" fill="#725c0c"/>
  <rect x="21" y="46" width="4" height="4" fill="#725c0c"/>
  <rect x="26" y="46" width="4" height="4" fill="#725c0c"/>
  <rect x="31" y="46" width="4" height="4" fill="#725c0c"/>
  <rect x="36" y="46" width="4" height="4" fill="#c63117"/>
  <rect x="41" y="46" width="4" height="4" fill="#725c0c"/>
  <rect x="46" y="46" width="4" height="4" fill="#725c0c"/>
  <rect x="51" y="46" width="4" height="4" fill="#c63117"/>
  <rect x="56" y="46" width="4" height="4" fill="#725c0c"/>
  <rect x="61" y="46" width="4" height="4" fill="#725c0c"/>
  <rect x="66" y="46" width="4" height="4" fill="#725c0c"/>
  <rect x="16" y="51" width="4" height="4" fill="#725c0c"/>
  <rect x="21" y="51" width="4" height="4" fill="#725c0c"/>
  <rect x="26" y="51" width="4" height="4" fill="#725c0c"/>
  <rect x="31" y="51" width="4" height="4" fill="#725c0c"/>
  <rect x="36" y="51" width="4" height="4" fill="#c63117"/>
  <rect x="41" y="51" width="4" height="4" fill="#c63117"/>
  <rect x="46" y="51" width="4" height="4" fill="#c63117"/>
  <rect x="51" y="51" width="4" height="4" fill="#c63117"/>
  <rect x="56" y="51" width="4" height="4" fill="#725c0c"/>
  <rect x="61" y="51" width="4" height="4" fill="#725c0c"/>
  <rect x="66" y="51" width="4" height="4" fill="#725c0c"/>
  <rect x="71" y="51" width="4" height="4" fill="#725c0c"/>
  <rect x="16" y="56" width="4" height="4" fill="#e3a730"/>
  <rect x="21" y="56" width="4" height="4" fill="#e3a730"/>
  <rect x="26" y="56" width="4" height="4" fill="#725c0c"/>
  <rect x="31" y="56" width="4" height="4" fill="#c63117"/>
  <rect x="36" y="56" width="4" height="4" fill="#e3a730"/>
  <rect x="41" y="56" width="4" height="4" fill="#c63117"/>
  <rect x="46" y="56" width="4" height="4" fill="#c63117"/>
  <rect x="51" y="56" width="4" height="4" fill="#e3a730"/>
  <rect x="56" y="56" width="4" height="4" fill="#c63117"/>
  <rect x="61" y="56" width="4" height="4" fill="#725c0c"/>
  <rect x="66" y="56" width="4" height="4" fill="#e3a730"/>
  <rect x="71" y="56" width="4" height="4" fill="#e3a730"/>
  <rect x="16" y="61" width="4" height="4" fill="#e3a730"/>
  <rect x="21" y="61" width="4" height="4" fill="#e3a730"/>
  <rect x="26" y="61" width="4" height="4" fill="#e3a730"/>
  <rect x="31" y="61" width="4" height="4" fill="#c63117"/>
  <rect x="36" y="61" width="4" height="4" fill="#c63117"/>
  <rect x="41" y="61" width="4" height="4" fill="#c63117"/>
  <rect x="46" y="61" width="4" height="4" fill="#c63117"/>
  <rect x="51" y="61" width="4" height="4" fill="#c63117"/>
  <rect x="56" y="61" width="4" height="4" fill="#c63117"/>
  <rect x="61" y="61" width="4" height="4" fill="#e3a730"/>
  <rect x="66" y="61" width="4" height="4" fill="#e3a730"/>
  <rect x="71" y="61" width="4" height="4" fill="#e3a730"/>
  <rect x="16" y="66" width="4" height="4" fill="#e3a730"/>
  <rect x="21" y="66" width="4" height="4" fill="#e3a730"/>
  <rect x="26" y="66" width="4" height="4" fill="#c63117"/>
  <rect x="31" y="66" width="4" height="4" fill="#c63117"/>
  <rect x="36" y="66" width="4" height="4" fill="#c63117"/>
  <rect x="41" y="66" width="4" height="4" fill="#c63117"/>
  <rect x="46" y="66" width="4" height="4" fill="#c63117"/>
  <rect x="51" y="66" width="4" height="4" fill="#c63117"/>
  <rect x="56" y="66" width="4" height="4" fill="#c63117"/>
  <rect x="61" y="66" width="4" height="4" fill="#c63117"/>
  <rect x="66" y="66" width="4" height="4" fill="#e3a730"/>
  <rect x="71" y="66" width="4" height="4" fill="#e3a730"/>
  <rect x="26" y="71" width="4" height="4" fill="#c63117"/>
  <rect x="31" y="71" width="4" height="4" fill="#c63117"/>
  <rect x="36" y="71" width="4" height="4" fill="#c63117"/>
  <rect x="51" y="71" width="4" height="4" fill="#c63117"/>
  <rect x="56" y="71" width="4" height="4" fill="#c63117"/>
  <rect x="61" y="71" width="4" height="4" fill="#c63117"/>
  <rect x="21" y="76" width="4" height="4" fill="#725c0c"/>
  <rect x="26" y="76" width="4" height="4" fill="#725c0c"/>
  <rect x="31" y="76" width="4" height="4" fill="#725c0c"/>
  <rect x="56" y="76" width="4" height="4" fill="#725c0c"/>
  <rect x="61" y="76" width="4" height="4" fill="#725c0c"/>
  <rect x="66" y="76" width="4" height="4" fill="#725c0c"/>
  <rect x="16" y="81" width="4" height="4" fill="#725c0c"/>
  <rect x="21" y="81" width="4" height="4" fill="#725c0c"/>
  <rect x="26" y="81" width="4" height="4" fill="#725c0c"/>
  <rect x="31" y="81" width="4" height="4" fill="#725c0c"/>
  <rect x="56" y="81" width="4" height="4" fill="#725c0c"/>
  <rect x="61" y="81" width="4" height="4" fill="#725c0c"/>
  <rect x="66" y="81" width="4" height="4" fill="#725c0c"/>
  <rect x="71" y="81" width="4" height="4" fill="#725c0c"/>
  <line x1="0.5" y1="0" x2="0.5" y2="91" class="grid-line"/>
  <line x1="5.5" y1="0" x2="5.5" y2="91" class="grid-line"/>
  <line x1="10.5" y1="0" x2="10.5" y2="91" class="grid-line"/>
  <line x1="15.5" y1="0" x2="15.5" y2="91" class="grid-line"/>
  <line x1="20.5" y1="0" x2="20.5" y2="91" class="grid-line"/>
  <line x1="25.5" y1="0" x2="25.5" y2="91" class="grid-line"/>
  <line x1="30.5" y1="0" x2="30.5" y2="91" class="grid-line"/>
  <line x1="35.5" y1="0" x2="35.5" y2="91" class="grid-line"/>
  <line x1="40.5" y1="0" x2="40.5" y2="91" class="grid-line"/>
  <line x1="45.5" y1="0" x2="45.5" y2="91" class="grid-line"/>
  <line x1="50.5" y1="0" x2="50.5" y2="91" class="grid-line"/>
  <line x1="55.5" y1="0" x2="55.5" y2="91" class="grid-line"/>
  <line x1="60.5" y1="0" x2="60.5" y2="91" class="grid-line"/>
  <line x1="65.5" y1="0" x2="65.5" y2="91" class="grid-line"/>
  <line x1="70.5" y1="0" x2="70.5" y2="91" class="grid-line"/>
  <line x1="75.5" y1="0" x2="75.5" y2="91" class="grid-line"/>
  <line x1="80.5" y1="0" x2="80.5" y2="91" class="grid-line"/>
  <line x1="85.5" y1="0" x2="85.5" y2="91" class="grid-line"/>
  <line x1="90.5" y1="0" x2="90.5" y2="91" class="grid-line"/>
  <line x1="0" y1="0.5" x2="91" y2="0.5" class="grid-line"/>
  <line x1="0" y1="5.5" x2="91" y2="5.5" class="grid-line"/>
  <line x1="0" y1="10.5" x2="91" y2="10.5" class="grid-line"/>
  <line x1="0" y1="15.5" x2="91" y2="15.5" class="grid-line"/>
  <line x1="0" y1="20.5" x2="91" y2="20.5" class="grid-line"/>
  <line x1="0" y1="25.5" x2="91" y2="25.5" class="grid-line"/>
  <line x1="0" y1="30.5" x2="91" y2="30.5" class="grid-line"/>
  <line x1="0" y1="35.5" x2="91" y2="35.5" class="grid-line"/>
  <line x1="0" y1="40.5" x2="91" y2="40.5" class="grid-line"/>
  <line x1="0" y1="45.5" x2="91" y2="45.5" class="grid-line"/>
  <line x1="0" y1="50.5" x2="91" y2="50.5" class="grid-line"/>
  <line x1="0" y1="55.5" x2="91" y2="55.5" class="grid-line"/>
  <line x1="0" y1="60.5" x2="91" y2="60.5" class="grid-line"/>
  <line x1="0" y1="65.5" x2="91" y2="65.5" class="grid-line"/>
  <line x1="0" y1="70.5" x2="91" y2="70.5" class="grid-line"/>
  <line x1="0" y1="75.5" x2="91" y2="75.5" class="grid-line"/>
  <line x1="0" y1="80.5" x2="91" y2="80.5" class="grid-line"/>
  <line x1="0" y1="85.5" x2="91" y2="85.5" class="grid-line"/>
  <line x1="0" y1="90.5" x2="91" y2="90.5" class="grid-line"/>
</svg>